<svg xmlns="http://www.w3.org/2000/svg" xmlns:xlink="http://www.w3.org/1999/xlink" width="236.846" height="179.566" viewBox="0 0 236.846 179.566">
  <defs>
    <linearGradient id="linear-gradient" x1="0.612" y1="0.369" x2="0.408" y2="0.555" gradientUnits="objectBoundingBox">
      <stop offset="0" stop-color="#78b46a"/>
      <stop offset="0.03" stop-color="#7f3500"/>
      <stop offset="1" stop-color="#fff"/>
    </linearGradient>
    <linearGradient id="linear-gradient-2" x1="0.822" y1="0.286" x2="0.299" y2="0.624" xlink:href="#linear-gradient"/>
    <linearGradient id="linear-gradient-3" x1="0.807" y1="0.219" x2="0.216" y2="0.666" xlink:href="#linear-gradient"/>
    <linearGradient id="linear-gradient-4" x1="0.81" y1="0.606" x2="0.675" y2="0.553" gradientUnits="objectBoundingBox">
      <stop offset="0" stop-color="#fff" stop-opacity="0"/>
      <stop offset="0.99" stop-color="#dc841e"/>
    </linearGradient>
    <linearGradient id="linear-gradient-5" x1="0.822" y1="0.276" x2="0.299" y2="0.623" xlink:href="#linear-gradient"/>
  </defs>
  <g id="Grupo_1" data-name="Grupo 1" transform="translate(-0.071 -0.407)">
    <path id="Trazado_1" data-name="Trazado 1" d="M114.994,178.1,4.676,112.92c-3.512-1.974-6.523-5.209-3.1-7.331L112.286,41.8c1.66-1.03,4.181-1.705,5.873-.72l115.786,67.19c3.512,2.038,4.142,7.717.643,9.774l-105.056,59.95a14.67,14.67,0,0,1-14.538.1Z" fill="#5b36a0"/>
    <path id="Trazado_2" data-name="Trazado 2" d="M114.994,175.088,4.676,109.91c-3.512-1.975-6.523-5.21-3.1-7.332L112.286,38.79c1.66-1.029,4.181-1.7,5.873-.72l115.786,67.19c3.512,2.039,4.142,7.717.643,9.775L129.532,174.984a14.67,14.67,0,0,1-14.538.1Z" fill="#6862e6"/>
    <path id="Trazado_3" data-name="Trazado 3" d="M124.09,89.094l-21.768,12.418s33.533,20.457,40.39,23.338l12.537-18.007" opacity="0.25" fill="url(#linear-gradient)"/>
    <path id="Trazado_4" data-name="Trazado 4" d="M116.57,148.67,94.8,136.277,73.022,148.695s11.34,6.92,22.18,13.274c6.882-4.868,13.771-9.788,21.368-13.3Z" opacity="0.25" fill="url(#linear-gradient-2)"/>
    <path id="Trazado_5" data-name="Trazado 5" d="M69.658,72.142,55.847,80.02s1.17,7.222,8.028,10.1L81.957,78.547" opacity="0.46" fill="url(#linear-gradient-3)"/>
    <ellipse id="Elipse_1" data-name="Elipse 1" cx="8.33" cy="5.865" rx="8.33" ry="5.865" transform="translate(68.088 68.29)" fill="#68e1fd"/>
    <ellipse id="Elipse_2" data-name="Elipse 2" cx="6.24" cy="2.553" rx="6.24" ry="2.553" transform="translate(70.172 68.142)" fill="#974c26"/>
    <path id="Trazado_6" data-name="Trazado 6" d="M76.187,66.438c0-1.151-.039-2.3-.129-3.454q-.039-.45-.084-.894l-.064-.585a3.5,3.5,0,0,0-.09-.6c-.039-.236-.08-.47-.122-.7a27.482,27.482,0,0,0-4.451-10.888A15.913,15.913,0,0,0,70,55.692c0,.643.051,1.286.1,1.89v.38a25.153,25.153,0,0,0,1.158,4.38,21.007,21.007,0,0,0,1.344,3.009q.852,1.632,1.846,3.183c.515.81,1,1.53,1.5,2.219a42.052,42.052,0,0,0,.23-4.315ZM72.913,53.492a1.035,1.035,0,0,0,0-.45q.237.245.47.5a1.428,1.428,0,0,0-.477-.052h.007Z" fill="#999a1c"/>
    <path id="Trazado_7" data-name="Trazado 7" d="M78.329,67.325a32.485,32.485,0,0,0,1.756-2.977q.211-.4.412-.8l.263-.534.251-.553.277-.643A27.48,27.48,0,0,0,83.43,50.245a15.918,15.918,0,0,0-4.5,4.694q-.5.8-.933,1.647l-.128.237-.033.1c-.122.29-.244.58-.36.875a25.154,25.154,0,0,0-1.035,3.44,21.006,21.006,0,0,0-.5,3.261q-.17,1.831-.167,3.672c0,.958,0,1.833.058,2.675.855-1.138,1.717-2.308,2.5-3.524Zm4.245-12.662a1.024,1.024,0,0,0,.219-.393q.07.334.122.644a1.419,1.419,0,0,0-.34-.251Z" fill="#999a1c"/>
    <path id="Trazado_8" data-name="Trazado 8" d="M78.284,70.193q.971-.481,1.93-1.041l.482-.3.315-.2.309-.218.36-.264a17.288,17.288,0,0,0,4.889-5.55,10.017,10.017,0,0,0-3.937,1.087c-.354.18-.695.38-1.036.585l-.147.09-.052.045-.476.354a15.773,15.773,0,0,0-1.672,1.524,13.317,13.317,0,0,0-1.32,1.6q-.67.947-1.286,1.93c-.308.514-.585,1-.83,1.466.83-.347,1.66-.708,2.47-1.113Zm6.38-5.466a.643.643,0,0,0,.245-.141q-.07.2-.154.4a.9.9,0,0,0-.09-.257v-.007Zm-8.477,1.711c0-1.151-.039-2.3-.129-3.454q-.039-.45-.084-.894l-.064-.585a3.5,3.5,0,0,0-.09-.6c-.039-.236-.08-.47-.122-.7a27.482,27.482,0,0,0-4.451-10.888A15.913,15.913,0,0,0,70,55.692c0,.643.051,1.286.1,1.89v.38a25.153,25.153,0,0,0,1.158,4.38,21.007,21.007,0,0,0,1.344,3.009q.852,1.632,1.846,3.183c.515.81,1,1.53,1.5,2.219a42.052,42.052,0,0,0,.23-4.315ZM72.913,53.492a1.035,1.035,0,0,0,0-.45q.237.245.47.5a1.428,1.428,0,0,0-.477-.052h.007Z" fill="#999a1c"/>
    <path id="Trazado_9" data-name="Trazado 9" d="M78.329,67.325a32.485,32.485,0,0,0,1.756-2.977q.211-.4.412-.8l.263-.534.251-.553.277-.643A27.48,27.48,0,0,0,83.43,50.245a15.918,15.918,0,0,0-4.5,4.694q-.5.8-.933,1.647l-.128.237-.033.1c-.122.29-.244.58-.36.875a25.154,25.154,0,0,0-1.035,3.44,21.006,21.006,0,0,0-.5,3.261q-.17,1.831-.167,3.672c0,.958,0,1.833.058,2.675.855-1.138,1.717-2.308,2.5-3.524Zm4.245-12.662a1.024,1.024,0,0,0,.219-.393q.07.334.122.644a1.419,1.419,0,0,0-.34-.251Z" fill="#999a1c"/>
    <path id="Trazado_10" data-name="Trazado 10" d="M78.284,70.193q.971-.481,1.93-1.041l.482-.3.315-.2.309-.218.36-.264a17.288,17.288,0,0,0,4.889-5.55,10.017,10.017,0,0,0-3.937,1.087c-.354.18-.695.38-1.036.585l-.147.09-.052.045-.476.354a15.773,15.773,0,0,0-1.672,1.524,13.317,13.317,0,0,0-1.32,1.6q-.67.947-1.286,1.93c-.308.514-.585,1-.83,1.466.83-.347,1.66-.708,2.47-1.113Zm6.38-5.466a.643.643,0,0,0,.245-.141q-.07.2-.154.4a.9.9,0,0,0-.09-.257v-.007Z" fill="#999a1c"/>
    <path id="Trazado_11" data-name="Trazado 11" d="M132.735,84.245l-12.048,5.788a2.772,2.772,0,0,0-.193,4.894l28.554,16.656a2.773,2.773,0,0,0,3.731-.894l6.94-10.791" fill="#a1482d"/>
    <path id="Trazado_12" data-name="Trazado 12" d="M198.264,56.328,102.194.984A4.336,4.336,0,0,0,95.7,4.74V62.315a3.6,3.6,0,0,0,1.8,3.12l102.42,59.106a2.323,2.323,0,0,0,3.486-2.013V65.19a10.225,10.225,0,0,0-5.14-8.862Z" fill="#f47b56"/>
    <path id="Trazado_13" data-name="Trazado 13" d="M102.2,5.338l93.169,53.588a6.533,6.533,0,0,1,3.274,5.66v43.157a2.36,2.36,0,0,1-3.531,2.045L100.1,55.306a2.328,2.328,0,0,1-1.17-2.02V7.235a2.186,2.186,0,0,1,3.274-1.9Z" fill="#fff"/>
    <ellipse id="Elipse_3" data-name="Elipse 3" cx="2.026" cy="2.315" rx="2.026" ry="2.315" transform="translate(138.537 82.576) rotate(-10.9)" fill="#ab643c"/>
    <path id="Trazado_14" data-name="Trazado 14" d="M127.242,63.891l43.3,26.007,21.389-12.431L153.712,55.229" opacity="0.32" fill="url(#linear-gradient-4)"/>
    <path id="Trazado_15" data-name="Trazado 15" d="M180.748,58.714,133.938,30.18a1.621,1.621,0,0,0-2.431,1.46V47.9a1.7,1.7,0,0,0,.817,1.467l46.8,27.93a1.615,1.615,0,0,0,2.412-1.41l.244-15.157A2.276,2.276,0,0,0,180.748,58.714Z" fill="#e2ac00"/>
    <path id="Trazado_16" data-name="Trazado 16" d="M169.549,67.08c1.679,2.348,4.631,3,6.587,1.473s2.18-4.675.5-7.016-4.631-3-6.587-1.472-2.18,4.669-.5,7.016Z" fill="#fff"/>
    <path id="Trazado_17" data-name="Trazado 17" d="M164.956,55.814,145.864,44.322a.727.727,0,0,0-.733,1.247l19.092,11.492a.727.727,0,0,0,.733-1.247Zm-.785,4.669-26.315-15.84a.727.727,0,0,0-.7,1.248l26.284,15.846a.727.727,0,0,0,.733-1.248Z" fill="#f2f2f2"/>
    <path id="Trazado_18" data-name="Trazado 18" d="M171.408,61.865,124.624,33.338a1.621,1.621,0,0,0-2.432,1.46v16.25a1.705,1.705,0,0,0,.81,1.473l46.8,27.93a1.615,1.615,0,0,0,2.419-1.44l.244-15.159A2.276,2.276,0,0,0,171.408,61.865Z" fill="#f47b56"/>
    <path id="Trazado_19" data-name="Trazado 19" d="M160.209,70.232c1.679,2.347,4.631,3,6.587,1.473s2.18-4.676.5-7.017-4.631-3-6.587-1.472S158.53,67.885,160.209,70.232Z" fill="#fff"/>
    <path id="Trazado_20" data-name="Trazado 20" d="M155.616,58.965,136.51,47.473a.727.727,0,0,0-.733,1.248l19.092,11.492a.727.727,0,0,0,.733-1.248h.013Zm-.791,4.7L128.515,47.8a.727.727,0,0,0-.733,1.248L154.1,64.888a.727.727,0,0,0,.733-1.248Z" fill="#f2f2f2"/>
    <path id="Trazado_21" data-name="Trazado 21" d="M159.668,63.782l-46.8-28.528a1.621,1.621,0,0,0-2.432,1.46V52.965a1.7,1.7,0,0,0,.817,1.466l46.8,27.93a1.615,1.615,0,0,0,2.419-1.44l.244-15.159a2.275,2.275,0,0,0-1.055-1.98Z" fill="#68e1fd"/>
    <path id="Trazado_22" data-name="Trazado 22" d="M159.668,63.782l-46.8-28.528a1.621,1.621,0,0,0-2.432,1.46V52.965a1.7,1.7,0,0,0,.817,1.466l46.8,27.93a1.615,1.615,0,0,0,2.419-1.44l.244-15.159a2.275,2.275,0,0,0-1.055-1.98Z" fill="#68e1fd"/>
    <path id="Trazado_23" data-name="Trazado 23" d="M148.463,72.148c1.679,2.348,4.631,3,6.587,1.473s2.18-4.675.5-7.016-4.631-3-6.586-1.473-2.162,4.67-.5,7.016Z" fill="#fff"/>
    <path id="Trazado_24" data-name="Trazado 24" d="M143.87,60.881l-19.1-11.491a.727.727,0,0,0-.734,1.248L143.13,62.13a.727.727,0,0,0,.734-1.248h.006Zm-.791,4.676-26.316-15.84a.727.727,0,0,0-.733,1.248l26.315,15.84a.727.727,0,0,0,.734-1.248Z" fill="#f2f2f2"/>
    <path id="Trazado_25" data-name="Trazado 25" d="M98.25,62.187A22.765,22.765,0,0,0,91.618,71.9c-2.328,6.43,3.493,16.939,3.493,16.939l9.057-7.17" fill="#ff8f6f"/>
    <path id="Trazado_26" data-name="Trazado 26" d="M97.273,147.21l-2.458-1.357.644-3.511s3.66.347,3.981,1.646" fill="#003b94"/>
    <path id="Trazado_27" data-name="Trazado 27" d="M98.173,147.158c.553-.34,1.132-.643,1.705-.945,1.421-.778,3.473-1.582,4.348-3.042a1.7,1.7,0,0,0-.116-1.929c-1.286-1.556-4.1,1-5.544-.72-.283-.341-.419-5.75-.419-5.75l-5.48,1.48s-.926,10.868-.823,11.537,1.987,1.286,1.987,1.286a4.857,4.857,0,0,0,1.583-.643c.572-.418.051-5.518.784-4.8s1.055,3.505,1.055,3.505a3.778,3.778,0,0,0,.92.025Z" fill="#f47b56"/>
    <path id="Trazado_28" data-name="Trazado 28" d="M107.738,152.464l-2.457-1.338.643-3.511s3.66.347,3.982,1.646" fill="#003b94"/>
    <path id="Trazado_29" data-name="Trazado 29" d="M108.665,152.412c.553-.34,1.132-.643,1.7-.945,1.422-.778,3.474-1.582,4.349-3.042a1.7,1.7,0,0,0-.116-1.929c-1.287-1.556-4.1,1-5.545-.72-.283-.341-.418-5.75-.418-5.75l-5.48,1.48s-.933,10.906-.83,11.55,1.987,1.286,1.987,1.286a4.857,4.857,0,0,0,1.583-.643c.572-.418.051-5.518.784-4.8s1.055,3.505,1.055,3.505a3.783,3.783,0,0,0,.927.012Z" fill="#f47b56"/>
    <path id="Trazado_30" data-name="Trazado 30" d="M89.882,117.133l-1.615,21.588s2.573,3.55,11.2,1.576l.083-14.553m.3-4.334c-.187,1.858,0,22.36,0,22.36s2.386,4.462,12.775,0l-.148-17.422" fill="#3e2928"/>
    <path id="Trazado_31" data-name="Trazado 31" d="M89.078,124.264c.707.49.952-2.025,1.691-1.594a42.1,42.1,0,0,0,8.517,3.755h.064a.586.586,0,0,1,.792.29,45.081,45.081,0,0,0,5.59,1.286c2.424.386,4.431-1.409,6.92-1.53,0-9.531.046-36.657-4.013-42.445l-12.01-4.038c-.058.99-5.828,7.678-5.686,15.833A183.745,183.745,0,0,1,89.7,116.554c-.032.489-.6,7.19-.623,7.71Z" fill="#3e2928"/>
    <path id="Trazado_32" data-name="Trazado 32" d="M109.745,73.068,108.639,84s-8.96.36-12.82-2.3V72.425" fill="#ff8f6f"/>
    <path id="Trazado_33" data-name="Trazado 33" d="M121.137,65.872l-.913,1.247A30,30,0,0,0,121.51,64c.258-.726-.907-1.016-1.164-.289l-.135.373q.168-.579.315-1.164a.6.6,0,1,0-1.164-.29,31.171,31.171,0,0,1-.907,2.985,21.3,21.3,0,0,0,.425-2.637c.077-.765-1.126-.733-1.2,0a18.934,18.934,0,0,1-.54,2.99,5.57,5.57,0,0,0-.1-1.029.6.6,0,0,0-.25-.43q-.049-.2-.116-.4a.6.6,0,0,0-1.178.18l-.077,4.5a5.4,5.4,0,0,1-.842,1.287,21.018,21.018,0,0,1,1.672,1.286,17.084,17.084,0,0,1,1.364,1.286q.579-.72,1.113-1.466a.643.643,0,0,0,.115-.129q1.607-2.378,3.32-4.682c.476-.527-.573-1.112-1.03-.5Z" fill="#ffb5a9"/>
    <path id="Trazado_34" data-name="Trazado 34" d="M104.059,63.1s4.233,1.138,5.95,3.859a48.379,48.379,0,0,1,2.837,5.845l3.126-4.855s3.795,1.164,5.3,3.029c0,0-4.5,9.84-8.426,10.682s-8.092-5.775-8.092-5.775-.862,2.765-.695-.187" fill="#ff8f6f"/>
    <path id="Trazado_35" data-name="Trazado 35" d="M106.748,73.615a8.572,8.572,0,0,1-2.683-3.82c-.508-1.73.129-3.248.72-4.856a15.643,15.643,0,0,0,1.107-5c.052-1.684-.141-3.37-.257-5.048a.489.489,0,0,1,0-.218c-.566-1.9-1.724-3.505-4.008-3.7-5.911-.5-6.246,6.045-6.2,8.707s.328,4.463-1.634,5.576-3.378,4.032-1.506,6.392.193,1.5-1.055,3.6-.926,4.714,1.634,5.66,14.46-.83,15.554-1.93a2.27,2.27,0,0,0,.56-1.608,6.238,6.238,0,0,0-2.232-3.755Z" fill="#007f68"/>
    <path id="Trazado_36" data-name="Trazado 36" d="M112.563,19.62a9.42,9.42,0,0,1,1.672,4.888,3.215,3.215,0,0,1-.547,2.283,1.319,1.319,0,0,1-1.6.277,2.464,2.464,0,0,1-.862-.58,3,3,0,0,1-.553-.7l-.154-.3a1.041,1.041,0,0,1-.155.218,1.114,1.114,0,0,1-.527.225,1.6,1.6,0,0,1-.952-.115A3.57,3.57,0,0,1,107.2,24.3a4.854,4.854,0,0,1-.746-2.437,2.4,2.4,0,0,1,.6-1.93,1.377,1.377,0,0,1,1.564-.244,2.307,2.307,0,0,1,.7.438,2.7,2.7,0,0,1,.464.508l.116.206V20.27l1.286.5.129,3.614a1.417,1.417,0,0,0,.231.727,1.133,1.133,0,0,0,.528.47q.933.366.862-1.609a6.957,6.957,0,0,0-1.242-3.633,6.091,6.091,0,0,0-2.85-2.43,2.4,2.4,0,0,0-2.675.34,3.633,3.633,0,0,0-1.036,2.971,7.664,7.664,0,0,0,1.287,3.859,5.93,5.93,0,0,0,2.746,2.572,3.247,3.247,0,0,0,1.287.25,1.707,1.707,0,0,0,.836-.154l.257-.141.779,1.447-.129.09a3.071,3.071,0,0,1-.38.18,2.432,2.432,0,0,1-.643.18,3.217,3.217,0,0,1-.855,0,4.31,4.31,0,0,1-1.087-.277,7.076,7.076,0,0,1-2.573-1.89,11.209,11.209,0,0,1-1.994-3.113,9.529,9.529,0,0,1-.824-3.453,5.542,5.542,0,0,1,.592-2.9,3.267,3.267,0,0,1,1.827-1.608,3.52,3.52,0,0,1,2.534.128,8.175,8.175,0,0,1,3.77,3.229Zm-2.837,4.573a1.289,1.289,0,0,0,.264-.952,2.456,2.456,0,0,0-.341-1.19,1.634,1.634,0,0,0-.779-.707.7.7,0,0,0-.79.1,1.177,1.177,0,0,0-.284.933,2.407,2.407,0,0,0,.367,1.2,1.728,1.728,0,0,0,.817.733.643.643,0,0,0,.746-.116m78.786,65.062a9.388,9.388,0,0,1,1.672,4.887,3.215,3.215,0,0,1-.546,2.283,1.325,1.325,0,0,1-1.6.277,2.534,2.534,0,0,1-.862-.58,3.113,3.113,0,0,1-.553-.7l-.154-.3a1.247,1.247,0,0,1-.155.218,1.086,1.086,0,0,1-.527.225,1.546,1.546,0,0,1-.946-.109,3.57,3.57,0,0,1-1.685-1.518,4.835,4.835,0,0,1-.753-2.443,2.364,2.364,0,0,1,.6-1.93,1.37,1.37,0,0,1,1.556-.244,2.289,2.289,0,0,1,.7.437,2.8,2.8,0,0,1,.464.515l.122.205V89.9l1.286.5.129,3.614a1.455,1.455,0,0,0,.231.727,1.122,1.122,0,0,0,.528.47c.643.244.907-.29.868-1.608a6.99,6.99,0,0,0-1.241-3.64,6.1,6.1,0,0,0-2.843-2.424,2.406,2.406,0,0,0-2.676.334,3.633,3.633,0,0,0-1.01,2.99,7.639,7.639,0,0,0,1.286,3.859,5.956,5.956,0,0,0,2.78,2.489,3.335,3.335,0,0,0,1.286.257,1.769,1.769,0,0,0,.836-.155l.257-.141.779,1.447-.13.09a2.86,2.86,0,0,1-.379.18,2.83,2.83,0,0,1-.643.18,3.282,3.282,0,0,1-.862,0,4.3,4.3,0,0,1-1.08-.283,7.076,7.076,0,0,1-2.573-1.884,11.234,11.234,0,0,1-2-3.12,9.51,9.51,0,0,1-.823-3.452,5.51,5.51,0,0,1,.592-2.894,3.293,3.293,0,0,1,1.827-1.615,3.564,3.564,0,0,1,2.54.13,8.188,8.188,0,0,1,3.693,3.305Zm-2.837,4.572a1.29,1.29,0,0,0,.27-.952,2.437,2.437,0,0,0-.347-1.19,1.608,1.608,0,0,0-.772-.707.7.7,0,0,0-.791.1,1.164,1.164,0,0,0-.29.932,2.393,2.393,0,0,0,.367,1.19,1.747,1.747,0,0,0,.817.74.643.643,0,0,0,.746-.11" fill="#f47b56"/>
    <path id="Trazado_37" data-name="Trazado 37" d="M60.324,116.676,38.55,104.29,16.782,116.7s12.113,7.562,22.951,13.916c6.883-4.862,13-10.424,20.591-13.942Z" opacity="0.25" fill="url(#linear-gradient-5)"/>
  </g>
</svg>
